<mxfile host="app.diagrams.net" modified="2023-12-11T17:31:13.721Z" agent="Mozilla/5.0 (Windows NT 10.0; Win64; x64) AppleWebKit/537.36 (KHTML, like Gecko) Chrome/118.0.0.0 Safari/537.36 OPR/104.0.0.0" etag="6xV4PG-USXUp7qv-RRym" version="22.1.7" type="device">
  <diagram name="Страница 1" id="YW91PB4rHEMt5rg3uFnZ">
    <mxGraphModel dx="2082" dy="2137" grid="1" gridSize="10" guides="1" tooltips="1" connect="1" arrows="1" fold="1" page="1" pageScale="1" pageWidth="827" pageHeight="1169" math="0" shadow="0">
      <root>
        <mxCell id="0" />
        <mxCell id="1" parent="0" />
        <mxCell id="B_57LP6_vWmh73mgXI6N-10" style="edgeStyle=orthogonalEdgeStyle;rounded=0;orthogonalLoop=1;jettySize=auto;html=1;entryX=0.5;entryY=0;entryDx=0;entryDy=0;" parent="1" source="c2hw_XhxiZxsvKRolTbk-1" target="B_57LP6_vWmh73mgXI6N-7" edge="1">
          <mxGeometry relative="1" as="geometry" />
        </mxCell>
        <mxCell id="c2hw_XhxiZxsvKRolTbk-1" value="" style="ellipse;whiteSpace=wrap;html=1;rounded=0;shadow=0;comic=0;labelBackgroundColor=none;strokeWidth=1;fillColor=#000000;fontFamily=Verdana;fontSize=12;align=center;" parent="1" vertex="1">
          <mxGeometry x="380" y="-70" width="40" height="40" as="geometry" />
        </mxCell>
        <mxCell id="c2hw_XhxiZxsvKRolTbk-3" value="Ввод x" style="rounded=1;whiteSpace=wrap;html=1;arcSize=50;" parent="1" vertex="1">
          <mxGeometry x="355" y="90" width="90" height="30" as="geometry" />
        </mxCell>
        <mxCell id="c2hw_XhxiZxsvKRolTbk-8" value="x == 0" style="edgeStyle=orthogonalEdgeStyle;rounded=0;orthogonalLoop=1;jettySize=auto;html=1;entryX=0.5;entryY=0;entryDx=0;entryDy=0;labelPosition=left;verticalLabelPosition=top;align=right;verticalAlign=bottom;fontSize=15;exitX=0;exitY=0.5;exitDx=0;exitDy=0;" parent="1" source="c2hw_XhxiZxsvKRolTbk-4" target="c2hw_XhxiZxsvKRolTbk-7" edge="1">
          <mxGeometry x="-0.4118" relative="1" as="geometry">
            <mxPoint x="377.5" y="159" as="sourcePoint" />
            <mxPoint x="310" y="239" as="targetPoint" />
            <mxPoint as="offset" />
          </mxGeometry>
        </mxCell>
        <mxCell id="c2hw_XhxiZxsvKRolTbk-4" value="" style="rhombus;whiteSpace=wrap;html=1;" parent="1" vertex="1">
          <mxGeometry x="380" y="140" width="40" height="40" as="geometry" />
        </mxCell>
        <mxCell id="c2hw_XhxiZxsvKRolTbk-6" value="" style="endArrow=classic;html=1;rounded=0;entryX=0.5;entryY=0;entryDx=0;entryDy=0;exitX=0.5;exitY=1;exitDx=0;exitDy=0;" parent="1" source="c2hw_XhxiZxsvKRolTbk-3" target="c2hw_XhxiZxsvKRolTbk-4" edge="1">
          <mxGeometry width="50" height="50" relative="1" as="geometry">
            <mxPoint x="290" y="250" as="sourcePoint" />
            <mxPoint x="340" y="200" as="targetPoint" />
          </mxGeometry>
        </mxCell>
        <mxCell id="B_57LP6_vWmh73mgXI6N-5" style="edgeStyle=orthogonalEdgeStyle;rounded=0;orthogonalLoop=1;jettySize=auto;html=1;entryX=0.5;entryY=0;entryDx=0;entryDy=0;" parent="1" source="c2hw_XhxiZxsvKRolTbk-7" target="B_57LP6_vWmh73mgXI6N-4" edge="1">
          <mxGeometry relative="1" as="geometry" />
        </mxCell>
        <mxCell id="c2hw_XhxiZxsvKRolTbk-7" value="Вывод &quot;Невозможно вычислить&quot;" style="rounded=1;whiteSpace=wrap;html=1;arcSize=50;" parent="1" vertex="1">
          <mxGeometry x="279" y="240" width="90" height="50" as="geometry" />
        </mxCell>
        <mxCell id="c2hw_XhxiZxsvKRolTbk-9" value="[else]" style="edgeStyle=orthogonalEdgeStyle;rounded=0;orthogonalLoop=1;jettySize=auto;html=1;labelPosition=right;verticalLabelPosition=top;align=left;verticalAlign=bottom;fontSize=15;exitX=1;exitY=0.5;exitDx=0;exitDy=0;" parent="1" source="c2hw_XhxiZxsvKRolTbk-4" edge="1">
          <mxGeometry relative="1" as="geometry">
            <mxPoint x="562.5" y="259" as="sourcePoint" />
            <mxPoint x="495" y="200" as="targetPoint" />
          </mxGeometry>
        </mxCell>
        <mxCell id="c2hw_XhxiZxsvKRolTbk-13" value="" style="edgeStyle=orthogonalEdgeStyle;rounded=0;orthogonalLoop=1;jettySize=auto;html=1;" parent="1" source="c2hw_XhxiZxsvKRolTbk-10" target="c2hw_XhxiZxsvKRolTbk-12" edge="1">
          <mxGeometry relative="1" as="geometry" />
        </mxCell>
        <mxCell id="c2hw_XhxiZxsvKRolTbk-10" value="a = x" style="rounded=1;whiteSpace=wrap;html=1;arcSize=50;" parent="1" vertex="1">
          <mxGeometry x="450" y="197" width="90" height="29" as="geometry" />
        </mxCell>
        <mxCell id="c2hw_XhxiZxsvKRolTbk-15" value="" style="edgeStyle=orthogonalEdgeStyle;rounded=0;orthogonalLoop=1;jettySize=auto;html=1;" parent="1" source="c2hw_XhxiZxsvKRolTbk-12" target="c2hw_XhxiZxsvKRolTbk-14" edge="1">
          <mxGeometry relative="1" as="geometry" />
        </mxCell>
        <mxCell id="c2hw_XhxiZxsvKRolTbk-12" value="s, k = a, 1" style="rounded=1;whiteSpace=wrap;html=1;arcSize=50;" parent="1" vertex="1">
          <mxGeometry x="450" y="250.5" width="90" height="29" as="geometry" />
        </mxCell>
        <mxCell id="c2hw_XhxiZxsvKRolTbk-22" value="" style="edgeStyle=orthogonalEdgeStyle;rounded=0;orthogonalLoop=1;jettySize=auto;html=1;" parent="1" source="c2hw_XhxiZxsvKRolTbk-14" target="c2hw_XhxiZxsvKRolTbk-16" edge="1">
          <mxGeometry relative="1" as="geometry" />
        </mxCell>
        <mxCell id="c2hw_XhxiZxsvKRolTbk-14" value="" style="rhombus;whiteSpace=wrap;html=1;" parent="1" vertex="1">
          <mxGeometry x="475" y="300" width="40" height="40" as="geometry" />
        </mxCell>
        <mxCell id="c2hw_XhxiZxsvKRolTbk-31" value="&lt;div style=&quot;line-height: 19px;&quot;&gt;&lt;font face=&quot;Consolas, Courier New, monospace&quot; color=&quot;#3b3b3b&quot;&gt;math.fabs(a) &amp;lt;= EPS&lt;/font&gt;&lt;br&gt;&lt;/div&gt;" style="edgeStyle=orthogonalEdgeStyle;rounded=0;orthogonalLoop=1;jettySize=auto;html=1;entryX=0.5;entryY=0;entryDx=0;entryDy=0;labelPosition=center;verticalLabelPosition=top;align=center;verticalAlign=bottom;fontSize=15;" parent="1" source="c2hw_XhxiZxsvKRolTbk-16" target="c2hw_XhxiZxsvKRolTbk-21" edge="1">
          <mxGeometry x="-0.5482" y="10" relative="1" as="geometry">
            <Array as="points">
              <mxPoint x="590" y="380" />
              <mxPoint x="590" y="630" />
            </Array>
            <mxPoint as="offset" />
          </mxGeometry>
        </mxCell>
        <mxCell id="c2hw_XhxiZxsvKRolTbk-16" value="" style="rhombus;whiteSpace=wrap;html=1;" parent="1" vertex="1">
          <mxGeometry x="475" y="360" width="40" height="40" as="geometry" />
        </mxCell>
        <mxCell id="c2hw_XhxiZxsvKRolTbk-24" value="" style="edgeStyle=orthogonalEdgeStyle;rounded=0;orthogonalLoop=1;jettySize=auto;html=1;" parent="1" source="c2hw_XhxiZxsvKRolTbk-17" target="c2hw_XhxiZxsvKRolTbk-19" edge="1">
          <mxGeometry relative="1" as="geometry" />
        </mxCell>
        <mxCell id="c2hw_XhxiZxsvKRolTbk-17" value="&lt;div style=&quot;background-color: rgb(255, 255, 255); font-family: Consolas, &amp;quot;Courier New&amp;quot;, monospace; font-size: 14px; line-height: 19px;&quot;&gt;&lt;font color=&quot;#3b3b3b&quot;&gt;a&lt;/font&gt;&lt;span style=&quot;color: rgb(0, 0, 0);&quot;&gt;*=&lt;/span&gt;&lt;span style=&quot;color: rgb(0, 16, 128);&quot;&gt;x&lt;/span&gt;&lt;span style=&quot;color: rgb(0, 0, 0);&quot;&gt;*&lt;/span&gt;&lt;span style=&quot;color: rgb(0, 16, 128);&quot;&gt;k&lt;/span&gt;/&lt;font color=&quot;#3b3b3b&quot;&gt;(&lt;/font&gt;&lt;span style=&quot;color: rgb(0, 16, 128);&quot;&gt;k&lt;/span&gt;&lt;span style=&quot;color: rgb(0, 0, 0);&quot;&gt;+&lt;/span&gt;&lt;span style=&quot;color: rgb(9, 134, 88);&quot;&gt;1&lt;/span&gt;&lt;font color=&quot;#3b3b3b&quot;&gt;)&lt;/font&gt;&lt;span style=&quot;color: rgb(0, 0, 0);&quot;&gt;**&lt;/span&gt;&lt;span style=&quot;color: rgb(9, 134, 88);&quot;&gt;2&lt;/span&gt;&lt;/div&gt;" style="rounded=1;whiteSpace=wrap;html=1;arcSize=50;" parent="1" vertex="1">
          <mxGeometry x="430" y="433" width="130" height="31" as="geometry" />
        </mxCell>
        <mxCell id="B_57LP6_vWmh73mgXI6N-13" style="edgeStyle=orthogonalEdgeStyle;rounded=0;orthogonalLoop=1;jettySize=auto;html=1;entryX=0.5;entryY=0;entryDx=0;entryDy=0;" parent="1" source="c2hw_XhxiZxsvKRolTbk-19" target="B_57LP6_vWmh73mgXI6N-12" edge="1">
          <mxGeometry relative="1" as="geometry" />
        </mxCell>
        <mxCell id="c2hw_XhxiZxsvKRolTbk-19" value="s += a" style="rounded=1;whiteSpace=wrap;html=1;arcSize=50;" parent="1" vertex="1">
          <mxGeometry x="450" y="486" width="90" height="39" as="geometry" />
        </mxCell>
        <mxCell id="c2hw_XhxiZxsvKRolTbk-36" value="" style="edgeStyle=orthogonalEdgeStyle;rounded=0;orthogonalLoop=1;jettySize=auto;html=1;exitX=0.5;exitY=1;exitDx=0;exitDy=0;" parent="1" source="c2hw_XhxiZxsvKRolTbk-21" target="c2hw_XhxiZxsvKRolTbk-35" edge="1">
          <mxGeometry relative="1" as="geometry">
            <Array as="points">
              <mxPoint x="591" y="710" />
              <mxPoint x="500" y="710" />
            </Array>
          </mxGeometry>
        </mxCell>
        <mxCell id="c2hw_XhxiZxsvKRolTbk-21" value="Вывод&amp;nbsp;EULER + math.log(math.fabs(x)) + S" style="rounded=1;whiteSpace=wrap;html=1;arcSize=50;" parent="1" vertex="1">
          <mxGeometry x="513" y="637" width="154" height="40" as="geometry" />
        </mxCell>
        <mxCell id="c2hw_XhxiZxsvKRolTbk-23" value="&lt;div style=&quot;line-height: 19px;&quot;&gt;&lt;font face=&quot;Consolas, Courier New, monospace&quot; color=&quot;#3b3b3b&quot;&gt;math.fabs(a) &amp;gt; EPS&lt;/font&gt;&lt;br&gt;&lt;/div&gt;" style="edgeStyle=orthogonalEdgeStyle;rounded=0;orthogonalLoop=1;jettySize=auto;html=1;entryX=0.5;entryY=0;entryDx=0;entryDy=0;labelPosition=left;verticalLabelPosition=middle;align=right;verticalAlign=middle;fontSize=15;exitX=0.5;exitY=1;exitDx=0;exitDy=0;" parent="1" source="c2hw_XhxiZxsvKRolTbk-16" target="c2hw_XhxiZxsvKRolTbk-17" edge="1">
          <mxGeometry x="-0.3939" y="-5" relative="1" as="geometry">
            <mxPoint x="540" y="445.5" as="sourcePoint" />
            <mxPoint x="470" y="524.5" as="targetPoint" />
            <mxPoint as="offset" />
          </mxGeometry>
        </mxCell>
        <mxCell id="c2hw_XhxiZxsvKRolTbk-35" value="" style="ellipse;html=1;shape=endState;fillColor=#000000;strokeColor=#000000;" parent="1" vertex="1">
          <mxGeometry x="485" y="722" width="30" height="30" as="geometry" />
        </mxCell>
        <mxCell id="B_57LP6_vWmh73mgXI6N-6" style="edgeStyle=orthogonalEdgeStyle;rounded=0;orthogonalLoop=1;jettySize=auto;html=1;entryX=0.5;entryY=0;entryDx=0;entryDy=0;" parent="1" source="B_57LP6_vWmh73mgXI6N-4" target="c2hw_XhxiZxsvKRolTbk-35" edge="1">
          <mxGeometry relative="1" as="geometry">
            <Array as="points">
              <mxPoint x="324" y="710" />
              <mxPoint x="500" y="710" />
            </Array>
          </mxGeometry>
        </mxCell>
        <mxCell id="B_57LP6_vWmh73mgXI6N-4" value="exit(1)" style="rounded=1;whiteSpace=wrap;html=1;arcSize=50;" parent="1" vertex="1">
          <mxGeometry x="279" y="330" width="90" height="29" as="geometry" />
        </mxCell>
        <mxCell id="B_57LP6_vWmh73mgXI6N-9" style="edgeStyle=orthogonalEdgeStyle;rounded=0;orthogonalLoop=1;jettySize=auto;html=1;exitX=0.5;exitY=1;exitDx=0;exitDy=0;entryX=0.5;entryY=0;entryDx=0;entryDy=0;" parent="1" source="B_57LP6_vWmh73mgXI6N-7" target="B_57LP6_vWmh73mgXI6N-8" edge="1">
          <mxGeometry relative="1" as="geometry" />
        </mxCell>
        <mxCell id="B_57LP6_vWmh73mgXI6N-7" value="EPS =&amp;nbsp; 1e-10" style="rounded=1;whiteSpace=wrap;html=1;arcSize=50;" parent="1" vertex="1">
          <mxGeometry x="355" y="-10" width="90" height="30" as="geometry" />
        </mxCell>
        <mxCell id="B_57LP6_vWmh73mgXI6N-11" style="edgeStyle=orthogonalEdgeStyle;rounded=0;orthogonalLoop=1;jettySize=auto;html=1;entryX=0.5;entryY=0;entryDx=0;entryDy=0;" parent="1" source="B_57LP6_vWmh73mgXI6N-8" target="c2hw_XhxiZxsvKRolTbk-3" edge="1">
          <mxGeometry relative="1" as="geometry" />
        </mxCell>
        <mxCell id="B_57LP6_vWmh73mgXI6N-8" value="EULER = 0.577215665" style="rounded=1;whiteSpace=wrap;html=1;arcSize=50;" parent="1" vertex="1">
          <mxGeometry x="355" y="40" width="90" height="30" as="geometry" />
        </mxCell>
        <mxCell id="B_57LP6_vWmh73mgXI6N-14" style="edgeStyle=orthogonalEdgeStyle;rounded=0;orthogonalLoop=1;jettySize=auto;html=1;entryX=0;entryY=0.5;entryDx=0;entryDy=0;" parent="1" source="B_57LP6_vWmh73mgXI6N-12" target="c2hw_XhxiZxsvKRolTbk-14" edge="1">
          <mxGeometry relative="1" as="geometry">
            <Array as="points">
              <mxPoint x="495" y="600" />
              <mxPoint x="390" y="600" />
              <mxPoint x="390" y="320" />
            </Array>
          </mxGeometry>
        </mxCell>
        <mxCell id="B_57LP6_vWmh73mgXI6N-12" value="k += 1" style="rounded=1;whiteSpace=wrap;html=1;arcSize=50;" parent="1" vertex="1">
          <mxGeometry x="450" y="548" width="90" height="39" as="geometry" />
        </mxCell>
      </root>
    </mxGraphModel>
  </diagram>
</mxfile>
